<svg width="24" height="25" viewBox="0 0 24 25" fill="none" xmlns="http://www.w3.org/2000/svg">
<path d="M20.2299 11.5783C20.2015 11.4581 20.1438 11.3468 20.062 11.2542C19.9803 11.1617 19.8769 11.0907 19.7611 11.0477L14.3602 9.02178L15.7345 2.14709C15.7657 1.98736 15.744 1.82184 15.6728 1.67551C15.6016 1.52918 15.4847 1.40998 15.3398 1.33589C15.1949 1.26181 15.0299 1.23686 14.8696 1.26481C14.7093 1.29276 14.5624 1.37209 14.4511 1.49084L3.95111 12.7408C3.86583 12.8307 3.80413 12.9403 3.77154 13.0598C3.73895 13.1793 3.73647 13.3051 3.76432 13.4258C3.79218 13.5465 3.84951 13.6584 3.93118 13.7516C4.01285 13.8447 4.11632 13.9162 4.23236 13.9596L9.63517 15.9855L8.26454 22.8527C8.23342 23.0124 8.2551 23.178 8.3263 23.3243C8.3975 23.4706 8.51436 23.5898 8.65926 23.6639C8.80415 23.738 8.9692 23.763 9.12952 23.735C9.28983 23.7071 9.43671 23.6277 9.54798 23.509L20.048 12.259C20.1317 12.1691 20.1921 12.06 20.2238 11.9413C20.2555 11.8227 20.2576 11.698 20.2299 11.5783ZM10.253 20.5624L11.2345 15.6518C11.2697 15.4776 11.2418 15.2966 11.156 15.1411C11.0701 14.9855 10.9319 14.8655 10.7658 14.8024L5.81204 12.9415L13.7452 4.44209L12.7645 9.35272C12.7294 9.52688 12.7572 9.70785 12.8431 9.8634C12.9289 10.019 13.0672 10.139 13.2333 10.2021L18.1833 12.0583L10.253 20.5624Z" fill="#EEEEEE"/>
</svg>
